<?xml version="1.0" encoding="utf-8"?>
<!-- Generator: Adobe Illustrator 21.0.2, SVG Export Plug-In . SVG Version: 6.00 Build 0)  -->
<svg version="1.1" id="图层_1" xmlns="http://www.w3.org/2000/svg" xmlns:xlink="http://www.w3.org/1999/xlink" x="0px" y="0px"
	 viewBox="0 0 595.3 841.9" style="enable-background:new 0 0 595.3 841.9;" xml:space="preserve">
<style type="text/css">
	.st0{fill:#8388DB;}
</style>
<path class="st0" d="M356.3,328.6c-22.4,0.6-38.1,10.9-47.1,30.8c-5.1-20.5-19.2-30.8-42.3-30.8c-20.5,0.6-35.9,10.3-46.1,28.8v-25
	h-28.8v141.3h28.8V392c1.3-26.3,12.2-39.7,32.7-40.4c19.9-0.6,29.5,11.9,28.8,37.5v84.6h29.8v-82.7c1.3-25,12.2-38.1,32.7-39.4
	c19.9-0.6,29.5,12.2,28.8,38.5v83.6h29.8v-88.4C403.4,347.5,387.7,328.6,356.3,328.6z"/>
</svg>
